 <svg  version="1.0" xmlns="http://www.w3.org/2000/svg"  width="300.000000pt" height="184.000000pt" viewBox="0 0 300.000000 184.000000"  preserveAspectRatio="xMidYMid meet">  <g transform="translate(0.000000,184.000000) scale(0.100000,-0.100000)" fill="#561029" stroke="none"> <path d="M719 1119 c-11 -11 -18 -27 -15 -35 3 -8 8 -20 11 -26 3 -7 1 -19 -4 -27 -11 -17 -47 0 -79 40 -27 33 -57 37 -72 10 -8 -16 -5 -26 15 -49 41 -49 27 -87 -22 -61 -45 24 -82 -23 -48 -62 16 -17 17 -21 2 -51 -13 -28 -14 -36 -3 -53 19 -28 54 -31 81 -5 l23 22 14 -29 c10 -20 22 -29 44 -31 29 -3 32 -6 30 -35 -1 -25 4 -33 27 -41 23 -8 31 -6 48 11 20 20 21 23 5 53 -8 18 -13 36 -10 41 10 17 83 9 128 -13 44 -21 46 -21 66 -3 26 24 25 49 -3 72 -17 14 -23 29 -24 67 -1 28 3 58 8 69 8 14 6 23 -7 38 -22 24 -36 24 -59 -1 -12 -14 -22 -17 -34 -10 -9 4 -26 8 -36 7 -21 -2 -23 11 -10 64 5 18 1 31 -10 42 -22 23 -41 21 -66 -4z m58 -15 c3 -8 1 -25 -5 -37 -18 -37 -23 -75 -11 -83 6 -3 22 -1 35 6 19 11 26 11 39 0 9 -7 14 -19 11 -26 -4 -10 3 -13 20 -12 21 2 24 7 22 33 -2 25 1 31 20 33 26 4 31 -22 6 -36 -14 -8 -15 -14 -3 -45 10 -29 10 -39 0 -51 -16 -19 -42 -21 -58 -5 -8 8 -20 6 -44 -6 -29 -15 -31 -18 -14 -27 9 -6 50 -11 89 -12 69 -1 71 -2 71 -26 0 -18 -6 -26 -23 -28 -13 -2 -24 3 -28 12 -9 23 -110 41 -140 25 -28 -14 -33 -63 -9 -73 8 -3 15 -12 15 -19 0 -21 -25 -38 -44 -31 -18 7 -22 39 -6 49 17 11 11 54 -11 76 -13 13 -18 27 -14 40 4 13 2 19 -8 19 -21 0 -28 26 -12 40 16 14 35 5 35 -16 0 -8 5 -14 10 -14 6 0 10 20 10 45 0 45 0 45 -35 45 -45 0 -69 -27 -70 -81 -1 -33 5 -47 28 -70 18 -18 27 -35 23 -45 -9 -23 -29 -12 -37 20 -10 37 -27 56 -50 56 -14 0 -19 -7 -19 -29 0 -32 -24 -48 -46 -30 -21 18 -17 39 11 49 21 8 24 15 21 42 -3 27 -7 32 -24 30 -27 -4 -38 16 -19 35 17 17 37 10 37 -13 0 -11 7 -13 28 -8 57 13 70 78 20 102 -16 7 -28 19 -28 26 0 20 27 27 40 10 7 -8 9 -14 5 -14 -5 0 0 -9 10 -20 10 -11 24 -20 31 -20 7 0 14 -4 16 -9 2 -5 18 -12 36 -16 32 -7 32 -6 32 32 0 22 -5 44 -11 50 -7 7 -9 19 -6 27 8 21 46 21 54 0z"/> <path d="M752 928 c3 -41 4 -43 33 -41 44 3 77 53 35 53 -11 0 -23 7 -26 15 -4 8 -15 15 -26 15 -16 0 -19 -6 -16 -42z"/> <path d="M854 926 c-8 -21 3 -36 27 -36 15 0 20 6 17 22 -4 27 -35 37 -44 14z"/> <path d="M570 900 c0 -16 5 -21 23 -18 12 2 22 10 22 18 0 8 -10 16 -22 18 -18 3 -23 -2 -23 -18z"/> <path d="M720 870 c-18 -11 -4 -40 20 -40 13 0 20 7 20 19 0 22 -21 33 -40 21z"/> <path d="M1050 1030 c-18 -18 -20 -33 -20 -128 0 -93 3 -111 18 -125 24 -22 31 -21 57 3 l22 20 25 -20 c31 -24 46 -25 69 -4 16 14 20 14 48 0 42 -22 95 -20 140 6 l37 21 31 -22 c38 -28 86 -30 136 -7 35 17 39 17 56 2 9 -9 22 -16 28 -16 18 0 43 36 43 64 0 17 10 36 27 51 30 25 43 19 43 -24 0 -13 15 -38 34 -57 27 -27 42 -34 75 -34 22 0 52 5 66 12 19 9 31 8 52 -1 26 -12 30 -10 53 17 l25 30 33 -29 c26 -24 41 -29 81 -29 33 0 56 6 72 19 23 19 24 19 61 0 41 -21 99 -25 128 -9 32 17 51 65 52 133 1 19 -10 39 -31 60 -27 27 -39 32 -80 32 -34 0 -55 -6 -70 -19 -21 -19 -22 -19 -67 3 -36 18 -54 22 -82 16 -21 -5 -57 -8 -81 -7 -29 1 -53 -5 -72 -19 l-28 -19 -37 25 c-20 14 -48 25 -61 25 -43 0 -91 -27 -109 -61 -16 -31 -17 -32 -30 -14 -19 25 -18 33 6 40 11 3 25 16 31 28 10 17 8 24 -11 39 -19 15 -38 18 -121 16 -91 -2 -101 -4 -115 -25 -9 -15 -24 -23 -42 -23 -15 0 -44 -11 -64 -25 l-37 -25 -37 25 c-40 28 -86 32 -124 12 -23 -13 -27 -11 -61 25 -33 35 -40 38 -92 38 -44 0 -62 -5 -77 -20z m588 -94 c-3 -84 -6 -97 -27 -120 -18 -19 -35 -26 -63 -26 -85 0 -122 100 -57 154 35 30 65 33 97 10 22 -15 22 -15 22 30 0 35 4 46 16 46 14 0 15 -13 12 -94z m-448 64 c34 -34 17 -100 -26 -100 -20 0 -18 -5 16 -55 34 -50 36 -55 15 -55 -8 0 -26 20 -41 45 -14 25 -35 50 -45 56 -18 9 -19 6 -19 -46 0 -40 -4 -55 -14 -55 -11 0 -14 24 -14 115 l0 115 54 0 c41 0 59 -5 74 -20z m620 5 c0 -11 -12 -15 -50 -15 l-50 0 0 -36 c0 -34 1 -35 30 -29 23 5 30 3 30 -9 0 -11 -9 -16 -30 -16 -30 0 -30 -1 -30 -55 0 -42 -3 -55 -15 -55 -12 0 -15 19 -15 115 l0 115 65 0 c51 0 65 -3 65 -15z m-419 -64 c16 -16 29 -39 29 -51 0 -20 -4 -21 -75 -18 -81 3 -92 -5 -55 -42 26 -26 64 -26 90 0 29 29 47 14 19 -16 -51 -54 -149 -18 -151 55 -3 88 83 131 143 72z m578 14 c81 -41 50 -165 -41 -165 -83 0 -119 91 -59 151 33 32 58 36 100 14z m311 0 c30 -16 37 -29 21 -39 -5 -3 -14 1 -21 9 -18 22 -76 19 -100 -5 -26 -26 -25 -58 2 -87 25 -26 64 -30 95 -8 13 9 24 11 28 6 9 -16 -37 -41 -78 -41 -100 0 -122 138 -27 173 27 10 50 7 80 -8z m218 -21 c12 -14 22 -34 22 -45 0 -19 -5 -20 -75 -17 -81 3 -93 -6 -58 -44 21 -24 65 -23 88 2 21 24 35 26 35 6 0 -34 -77 -58 -125 -40 -26 10 -48 62 -41 99 14 74 103 97 154 39z m-368 16 c0 -5 -6 -10 -14 -10 -26 0 -46 -42 -46 -97 0 -37 -4 -53 -13 -53 -22 0 -9 120 16 148 21 22 57 30 57 12z m170 -72 c0 -14 -41 -29 -68 -26 -35 4 -42 35 -11 46 23 9 79 -5 79 -20z"/> <path d="M1496 918 c-21 -30 -20 -50 5 -82 38 -48 109 -20 109 42 0 58 -82 86 -114 40z m72 -40 c-3 -25 -17 -32 -37 -19 -19 12 -6 41 19 41 16 0 21 -5 18 -22z"/> <path d="M1090 955 l0 -36 43 3 c39 3 42 5 42 33 0 28 -3 30 -42 33 l-43 3 0 -36z"/> <path d="M1293 928 c-23 -30 -20 -33 38 -33 59 0 71 9 47 33 -16 16 -73 15 -85 0z"/> <path d="M1886 925 c-26 -27 -29 -56 -9 -84 39 -52 113 -27 113 37 0 53 -68 83 -104 47z m64 -45 c0 -24 -29 -38 -40 -20 -12 19 -1 40 21 40 12 0 19 -7 19 -20z"/> <path d="M2386 924 c-26 -25 -19 -29 44 -29 33 0 60 3 60 7 0 16 -34 38 -60 38 -16 0 -36 -7 -44 -16z"/> </g> </svg> 